<?xml version="1.0" encoding="UTF-8"?>
<!-- Generator: visioncortex VTracer 0.6.4 -->
<svg version="1.1" xmlns="http://www.w3.org/2000/svg" width="1280" height="468" viewBox="0 0 1280 468">
<path d="M0 0 C30.684 26.609 48.565 64.759 51.629 105.06 C52.116 116.436 52.036 127.825 51.999 139.209 C51.987 143.606 51.992 148.003 51.993 152.4 C51.994 159.773 51.983 167.145 51.965 174.518 C51.944 182.992 51.94 191.466 51.946 199.94 C51.952 208.163 51.946 216.385 51.935 224.608 C51.931 228.076 51.93 231.545 51.932 235.013 C51.95 284.763 43.264 328.168 7.629 365.06 C6.766 365.986 5.904 366.911 5.015 367.865 C-19.857 393.88 -57.435 410.371 -93.379 411.299 C-134.943 411.871 -173.385 401.025 -204.285 371.97 C-206.233 370.187 -208.232 368.604 -210.371 367.06 C-208.943 363.816 -207.199 361.622 -204.719 359.102 C-203.598 357.956 -203.598 357.956 -202.454 356.788 C-201.645 355.974 -200.837 355.16 -200.004 354.322 C-199.173 353.482 -198.342 352.642 -197.486 351.776 C-195.728 350.004 -193.968 348.235 -192.205 346.468 C-189.501 343.753 -186.817 341.019 -184.133 338.285 C-182.425 336.567 -180.715 334.85 -179.004 333.135 C-178.2 332.311 -177.396 331.487 -176.567 330.638 C-175.813 329.89 -175.059 329.142 -174.282 328.372 C-173.622 327.706 -172.962 327.041 -172.282 326.356 C-170.371 325.06 -170.371 325.06 -168.271 325.242 C-165.562 326.409 -163.701 328.17 -161.496 330.123 C-144.88 343.988 -122.106 353.248 -100.164 352.342 C-73.385 349.645 -48.286 340.079 -30.371 319.06 C-17.565 303.022 -8.298 284.033 -8.224 263.113 C-8.22 262.438 -8.217 261.763 -8.213 261.067 C-8.202 258.818 -8.198 256.568 -8.194 254.319 C-8.188 252.7 -8.181 251.082 -8.174 249.463 C-8.153 244.156 -8.143 238.848 -8.133 233.541 C-8.129 231.707 -8.125 229.873 -8.121 228.039 C-8.102 219.414 -8.087 210.789 -8.079 202.165 C-8.069 192.246 -8.043 182.328 -8.003 172.41 C-7.972 164.722 -7.958 157.033 -7.954 149.344 C-7.952 144.763 -7.943 140.183 -7.918 135.602 C-7.894 131.282 -7.89 126.962 -7.901 122.642 C-7.901 121.071 -7.895 119.499 -7.881 117.928 C-7.652 90.497 -17.964 66.689 -36.996 46.998 C-55.437 28.593 -80.208 20.801 -105.821 20.812 C-128.41 21.071 -149.273 29.396 -166.371 44.06 C-166.972 44.517 -167.573 44.973 -168.192 45.443 C-185.711 59.051 -195.338 82.794 -198.371 104.06 C-199.876 122.589 -197.601 140.288 -189.371 157.06 C-188.919 157.992 -188.466 158.924 -188 159.885 C-184.533 166.621 -180.254 172.293 -175.371 178.06 C-174.914 178.664 -174.456 179.267 -173.985 179.888 C-160.506 197.212 -136.527 207.216 -115.371 210.06 C-110.348 210.371 -105.328 210.432 -100.297 210.474 C-98.878 210.493 -97.459 210.513 -96.04 210.533 C-92.342 210.584 -88.645 210.624 -84.948 210.661 C-80.492 210.709 -76.035 210.77 -71.579 210.829 C-64.843 210.917 -58.107 210.987 -51.371 211.06 C-51.371 230.53 -51.371 250 -51.371 270.06 C-59.346 270.124 -67.32 270.184 -75.295 270.216 C-79.011 270.231 -82.727 270.252 -86.443 270.287 C-134.589 270.723 -176.954 260.241 -212.371 226.06 C-213.212 225.283 -214.052 224.506 -214.918 223.705 C-240.71 199.186 -256.611 162.747 -258.578 127.334 C-258.674 123.511 -258.701 119.697 -258.684 115.873 C-258.681 114.86 -258.681 114.86 -258.677 113.827 C-258.459 70.927 -240.846 32.854 -210.556 2.826 C-152.46 -53.146 -59.914 -51.227 0 0 Z " fill="#F55036" transform="translate(284.371337890625,47.939697265625)"/>
<path d="M0 0 C2.507 2.218 4.954 4.486 7.387 6.785 C8.186 7.52 8.985 8.255 9.809 9.012 C30.047 28.283 43.583 54.323 50.262 81.285 C50.453 82.042 50.644 82.798 50.841 83.577 C54.968 101.718 54.676 120.478 54.619 138.962 C54.61 142.556 54.613 146.149 54.615 149.742 C54.616 155.944 54.61 162.146 54.598 168.347 C54.582 177.314 54.577 186.28 54.574 195.246 C54.57 209.799 54.557 224.352 54.538 238.904 C54.519 253.027 54.505 267.15 54.497 281.273 C54.496 282.146 54.496 283.019 54.495 283.919 C54.492 288.299 54.49 292.678 54.487 297.058 C54.467 333.301 54.43 369.543 54.387 405.785 C34.917 405.785 15.447 405.785 -4.613 405.785 C-4.623 396.756 -4.632 387.727 -4.642 378.424 C-4.674 349.488 -4.727 320.552 -4.791 291.616 C-4.801 287.117 -4.811 282.617 -4.821 278.118 C-4.823 277.222 -4.825 276.326 -4.827 275.404 C-4.858 260.927 -4.875 246.45 -4.886 231.973 C-4.899 217.103 -4.926 202.233 -4.968 187.364 C-4.993 178.198 -5.006 169.033 -5.005 159.868 C-5.005 153.571 -5.019 147.274 -5.045 140.978 C-5.06 137.352 -5.068 133.727 -5.059 130.102 C-4.987 98.301 -11.209 72.923 -33.789 49.508 C-38.064 45.386 -42.645 42.02 -47.613 38.785 C-48.389 38.254 -49.165 37.723 -49.965 37.176 C-69.923 24.226 -95.648 20.582 -118.824 24.866 C-137.704 28.951 -153.86 38.258 -167.613 51.785 C-168.385 52.544 -169.158 53.304 -169.953 54.086 C-184.427 69.203 -193.466 90.967 -194.613 111.785 C-194.666 112.712 -194.719 113.639 -194.773 114.594 C-195.556 141.847 -184.774 166.663 -166.363 186.473 C-149.031 202.757 -125.972 212.649 -102.127 212.99 C-100.886 213.01 -99.646 213.03 -98.367 213.051 C-97.034 213.068 -95.701 213.085 -94.367 213.102 C-92.987 213.122 -91.607 213.143 -90.227 213.165 C-86.615 213.219 -83.004 213.269 -79.392 213.317 C-75.698 213.368 -72.004 213.423 -68.311 213.479 C-61.078 213.586 -53.846 213.685 -46.613 213.785 C-46.613 233.255 -46.613 252.725 -46.613 272.785 C-60.319 272.847 -60.319 272.847 -74.301 272.91 C-77.138 272.928 -79.974 272.947 -82.897 272.965 C-100.783 273.033 -118.993 273.076 -136.426 268.535 C-137.29 268.318 -138.154 268.1 -139.044 267.876 C-165.4 261.013 -188.104 247.63 -207.613 228.785 C-208.539 227.923 -209.464 227.06 -210.418 226.172 C-235.069 202.603 -252.293 166.289 -253.774 132.063 C-254.152 96.218 -254.152 96.218 -250.613 82.785 C-250.307 81.595 -250.307 81.595 -249.995 80.381 C-243.858 57.096 -233.706 35.879 -217.613 17.785 C-216.908 16.96 -216.203 16.135 -215.477 15.285 C-160.904 -47.42 -62.908 -53.316 0 0 Z " fill="#F55036" transform="translate(1201.61328125,46.21484375)"/>
<path d="M0 0 C0.98 0.87 0.98 0.87 1.98 1.758 C29.385 27.665 45.875 67.666 47 105 C47.04 105.994 47.08 106.988 47.121 108.012 C48.034 150.809 31.089 190.116 1.973 220.988 C-21.67 245.368 -54.51 260.569 -88 265 C-88.843 265.112 -89.686 265.224 -90.555 265.34 C-129.721 269.685 -171.282 258.846 -202.356 234.349 C-206.959 230.572 -211.299 226.52 -215.572 222.377 C-216.839 221.155 -218.131 219.958 -219.426 218.766 C-245.082 194.522 -260.17 157.357 -262.205 122.486 C-262.302 118.946 -262.329 115.416 -262.312 111.875 C-262.307 110.613 -262.301 109.351 -262.295 108.051 C-261.824 71.364 -248.427 37.999 -225 10 C-224.276 9.132 -223.551 8.265 -222.805 7.371 C-218.553 2.444 -214.03 -1.879 -209 -6 C-208.027 -6.822 -207.054 -7.645 -206.051 -8.492 C-144.412 -59.585 -57.909 -51.421 0 0 Z M-178.391 46.102 C-181.871 50.207 -184.972 54.554 -188 59 C-188.806 60.172 -188.806 60.172 -189.629 61.367 C-202.639 81.545 -206.599 107.822 -201.817 131.199 C-195.824 156.296 -180.401 179.35 -158.3 193.028 C-134.661 206.954 -107.847 210.529 -81.387 203.698 C-66.466 199.336 -53.627 191.151 -42 181 C-41.374 180.459 -40.747 179.917 -40.102 179.359 C-22.599 163.089 -13.174 139.033 -11.797 115.535 C-11.423 87.827 -21.284 62.849 -40.625 42.875 C-58.651 25.017 -82.474 15.715 -107.688 15.562 C-134.321 15.856 -159.935 26.641 -178.391 46.102 Z " fill="#F55036" transform="translate(870,53)"/>
<path d="M0 0 C0.828 0.381 1.657 0.761 2.51 1.153 C3.652 1.702 3.652 1.702 4.816 2.262 C5.493 2.585 6.169 2.908 6.865 3.241 C8.438 4.313 8.438 4.313 9.438 7.312 C8.488 9.567 8.488 9.567 6.965 12.23 C6.401 13.227 5.837 14.224 5.256 15.25 C4.636 16.323 4.015 17.395 3.375 18.5 C2.749 19.599 2.123 20.698 1.478 21.83 C-0.523 25.332 -2.539 28.824 -4.562 32.312 C-4.9 32.896 -5.238 33.479 -5.586 34.08 C-9.885 41.507 -14.211 48.917 -18.562 56.312 C-22.849 55.529 -26.628 54.133 -30.625 52.438 C-57.273 41.459 -86.218 43.377 -112.562 54.312 C-131.821 63.027 -148.506 79.114 -156.039 99.059 C-160.085 110.529 -161.859 121.07 -161.865 133.209 C-161.878 135.09 -161.878 135.09 -161.891 137.008 C-161.908 139.721 -161.921 142.434 -161.929 145.147 C-161.94 149.475 -161.966 153.804 -161.993 158.132 C-162.034 165.018 -162.067 171.905 -162.095 178.792 C-162.146 191.018 -162.21 203.244 -162.281 215.47 C-162.305 219.732 -162.325 223.993 -162.34 228.255 C-162.417 248.294 -162.915 268.284 -163.562 288.312 C-182.702 288.312 -201.842 288.312 -221.562 288.312 C-222.286 267.563 -222.735 246.857 -222.763 226.095 C-222.766 223.912 -222.77 221.729 -222.774 219.545 C-222.788 212.648 -222.797 205.752 -222.801 198.855 C-222.806 191.008 -222.824 183.162 -222.852 175.316 C-222.874 169.159 -222.884 163.002 -222.885 156.844 C-222.886 153.205 -222.892 149.566 -222.91 145.927 C-223.104 104.767 -215.665 69.432 -188.562 37.312 C-187.549 36.096 -187.549 36.096 -186.516 34.855 C-141.418 -17.402 -60.794 -28.121 0 0 Z " fill="#F55036" transform="translate(600.5625,24.6875)"/>
</svg>
