<?xml version="1.0" encoding="UTF-8"?>
<!-- Generator: visioncortex VTracer 0.6.4 -->
<svg version="1.1" xmlns="http://www.w3.org/2000/svg" width="320" height="320" viewBox="0 0 320 320">
<path d="M0 0 C0.923 0.436 1.846 0.871 2.797 1.32 C15.845 7.917 29.047 19.244 37.576 31.212 C38.046 31.802 38.516 32.392 39 33 C39.66 33 40.32 33 41 33 C42.269 31.573 43.465 30.08 44.625 28.562 C55.895 14.234 69.348 -0.049 88 -4 C100.669 -5.036 112.639 -5.188 124 1 C124.874 1.446 125.748 1.892 126.648 2.352 C151.115 15.827 166.061 42.556 173.929 68.508 C174.645 70.999 175.329 73.496 176 76 C176.213 76.77 176.426 77.539 176.646 78.333 C180.179 91.689 180.416 105.147 180.5 118.875 C180.516 120.188 180.516 120.188 180.532 121.527 C180.709 140.575 177.813 160.834 164.008 175.258 C153.48 184.393 143.338 187.529 129.625 187.438 C128.565 187.457 127.506 187.477 126.414 187.498 C116.843 187.492 108.375 185.319 100.625 179.5 C99.854 178.933 99.083 178.366 98.289 177.781 C97.534 177.193 96.778 176.606 96 176 C95.166 175.37 94.332 174.739 93.473 174.09 C88.999 170.309 85.613 165.586 82 161 C81.58 160.471 81.16 159.943 80.727 159.398 C75.019 152.203 69.752 144.869 65 137 C64.602 136.343 64.203 135.685 63.792 135.008 C58.71 126.617 53.696 118.184 48.703 109.738 C48.339 109.122 47.975 108.507 47.599 107.872 C45.787 104.807 43.976 101.742 42.168 98.674 C41.511 97.561 40.853 96.448 40.176 95.301 C39.587 94.302 38.998 93.304 38.392 92.275 C37.191 90.113 37.191 90.113 36 89 C35.685 89.561 35.369 90.121 35.045 90.699 C31.684 96.67 28.31 102.635 24.929 108.595 C23.657 110.84 22.388 113.087 21.122 115.335 C-14.275 178.132 -14.275 178.132 -40.417 186.411 C-45.369 187.54 -50.318 187.471 -55.375 187.438 C-56.435 187.457 -57.494 187.477 -58.586 187.498 C-71.289 187.49 -83.186 182.803 -92.258 173.746 C-104.432 159.327 -108.588 142.085 -109 123.625 C-109.018 122.938 -109.036 122.252 -109.055 121.545 C-109.914 85.699 -98.55 45.958 -74 19 C-73.316 18.223 -72.631 17.445 -71.926 16.645 C-54.461 -2.112 -24.084 -12.193 0 0 Z M71.594 33.301 C65.03 40.131 59.573 47.711 55 56 C55.646 57 56.292 58.001 56.957 59.031 C63.247 68.851 69.285 78.8 75.205 88.846 C82.826 101.777 90.575 114.571 99 127 C99.522 127.774 100.043 128.548 100.581 129.346 C110.568 145.387 110.568 145.387 126 155 C131.985 155.668 136.937 155.567 142 152 C149.096 145.566 151.493 137.4 152 128 C153.366 96.188 146.642 60.271 125.461 35.512 C117.932 27.828 109.216 21.888 98.324 21 C87.542 21 79.252 26.151 71.594 33.301 Z M-50 41 C-50.69 41.706 -51.379 42.413 -52.09 43.141 C-71.231 64.821 -77.566 99.782 -76.168 127.826 C-75.539 135.948 -73.39 143.734 -68 150 C-61.849 154.798 -56.625 155.795 -49 155 C-25.105 147.801 -9.235 110.217 2.908 90.959 C5.725 86.506 8.59 82.102 11.578 77.762 C12.144 76.936 12.709 76.111 13.292 75.261 C14.362 73.71 15.442 72.166 16.534 70.632 C17.242 69.604 17.242 69.604 17.965 68.555 C18.384 67.962 18.803 67.368 19.234 66.757 C20.254 64.417 19.907 63.353 19 61 C17.431 58.728 15.847 56.586 14.125 54.438 C13.634 53.822 13.143 53.206 12.637 52.572 C3.445 41.236 -6.964 29.417 -22.301 27.75 C-34.239 27.156 -41.96 32.681 -50 41 Z " fill="#0175EF" transform="translate(124,68)"/>
</svg>
