<?xml version="1.0" encoding="UTF-8"?>
<!-- Generator: visioncortex VTracer 0.6.4 -->
<svg version="1.1" xmlns="http://www.w3.org/2000/svg" width="1280" height="906" viewBox="0 0 1280 906">
<path d="M0 0 C20.097 -0.468 40.193 -0.82 60.294 -1.036 C69.629 -1.139 78.961 -1.279 88.293 -1.509 C96.434 -1.709 104.571 -1.837 112.714 -1.882 C117.022 -1.908 121.323 -1.968 125.629 -2.115 C151.697 -2.967 151.697 -2.967 158.752 1.897 C163.244 6.448 166.074 11.568 168.695 17.351 C170.944 21.917 174.001 25.905 177 30 C178.17 31.664 179.337 33.331 180.5 35 C181.077 35.825 181.655 36.65 182.25 37.5 C215.5 85 215.5 85 217.25 87.501 C218.415 89.165 219.581 90.829 220.746 92.493 C223.688 96.697 226.63 100.901 229.57 105.105 C235.032 112.914 240.5 120.718 246 128.5 C252.101 137.131 258.161 145.79 264.218 154.452 C267.144 158.635 270.072 162.818 273 167 C274.167 168.667 275.333 170.333 276.5 172 C277.366 173.238 277.366 173.238 278.25 174.5 C336 257 393.75 339.5 465.5 442 C466.078 442.825 466.655 443.65 467.25 444.5 C468.416 446.166 469.582 447.832 470.748 449.498 C473.674 453.679 476.602 457.859 479.535 462.035 C485.519 470.56 491.476 479.103 497.375 487.688 C498.224 488.918 498.224 488.918 499.09 490.174 C499.604 490.925 500.119 491.676 500.648 492.449 C501.104 493.113 501.559 493.776 502.029 494.46 C503 496 503 496 503 497 C482.903 497.468 462.807 497.82 442.706 498.036 C433.371 498.139 424.039 498.279 414.707 498.509 C406.566 498.709 398.429 498.837 390.286 498.882 C385.978 498.908 381.677 498.968 377.371 499.115 C351.303 499.967 351.303 499.967 344.248 495.103 C339.756 490.552 336.926 485.432 334.305 479.649 C332.056 475.083 328.999 471.095 326 467 C324.83 465.336 323.663 463.669 322.5 462 C321.634 460.763 321.634 460.763 320.75 459.5 C263 377 205.25 294.5 131.75 189.499 C130.585 187.835 129.419 186.171 128.254 184.507 C125.312 180.303 122.37 176.099 119.43 171.895 C113.968 164.086 108.5 156.282 103 148.5 C96.899 139.869 90.839 131.21 84.782 122.548 C81.856 118.365 78.928 114.182 76 110 C74.833 108.333 73.667 106.667 72.5 105 C71.634 103.762 71.634 103.762 70.75 102.5 C59.667 86.667 48.583 70.833 37.5 55 C36.922 54.175 36.345 53.35 35.75 52.5 C34.584 50.834 33.418 49.168 32.252 47.502 C29.326 43.321 26.398 39.141 23.465 34.965 C17.481 26.44 11.524 17.897 5.625 9.312 C4.776 8.082 4.776 8.082 3.91 6.826 C3.139 5.7 3.139 5.7 2.352 4.551 C1.896 3.887 1.441 3.224 0.971 2.54 C0 1 0 1 0 0 Z " fill="#000000" transform="translate(306,322)"/>
<path d="M0 0 C0.33 0 0.66 0 1 0 C1.065 17.817 0.891 35.619 0.551 53.432 C0.502 56.096 0.453 58.759 0.405 61.422 C0.3 67.162 0.193 72.901 0.085 78.64 C-0.076 87.174 -0.233 95.708 -0.391 104.242 C-0.688 120.371 -0.989 136.5 -1.291 152.629 C-1.524 165.079 -1.756 177.529 -1.987 189.978 C-2.021 191.772 -2.054 193.565 -2.087 195.358 C-2.104 196.248 -2.12 197.139 -2.137 198.056 C-2.162 199.394 -2.162 199.394 -2.188 200.759 C-2.204 201.652 -2.221 202.546 -2.238 203.466 C-2.705 228.556 -3.172 253.646 -3.642 278.737 C-3.669 280.152 -3.669 280.152 -3.696 281.597 C-3.785 286.38 -3.875 291.163 -3.964 295.946 C-3.982 296.895 -4 297.845 -4.018 298.824 C-4.054 300.745 -4.09 302.665 -4.126 304.586 C-4.686 334.518 -5.243 364.45 -5.798 394.382 C-6.421 428.054 -7.047 461.726 -7.678 495.397 C-7.745 498.986 -7.812 502.574 -7.879 506.163 C-7.895 507.046 -7.912 507.93 -7.929 508.84 C-8.178 522.174 -8.426 535.508 -8.672 548.842 C-8.952 563.992 -9.234 579.143 -9.521 594.293 C-9.681 602.77 -9.839 611.246 -9.993 619.722 C-10.097 625.384 -10.203 631.046 -10.312 636.708 C-10.374 639.933 -10.434 643.159 -10.492 646.384 C-10.554 649.861 -10.621 653.339 -10.69 656.816 C-10.714 658.31 -10.714 658.31 -10.74 659.835 C-10.759 660.771 -10.779 661.707 -10.799 662.671 C-10.814 663.465 -10.828 664.259 -10.844 665.077 C-11.075 669.395 -11.57 673.696 -12 678 C-45.66 678 -79.32 678 -114 678 C-115.063 645.111 -115.063 645.111 -115.407 633.857 C-115.431 633.084 -115.454 632.311 -115.479 631.514 C-116.514 597.525 -117.352 563.53 -118.222 529.536 C-118.385 523.176 -118.548 516.816 -118.712 510.456 C-119.168 492.703 -119.623 474.95 -120.076 457.197 C-120.104 456.076 -120.133 454.954 -120.162 453.799 C-120.191 452.675 -120.22 451.552 -120.249 450.395 C-120.307 448.12 -120.365 445.846 -120.423 443.571 C-120.467 441.879 -120.467 441.879 -120.511 440.153 C-120.979 421.811 -121.451 403.468 -121.926 385.126 C-122.419 366.111 -122.907 347.095 -123.391 328.079 C-123.661 317.475 -123.933 306.87 -124.209 296.266 C-124.444 287.262 -124.675 278.258 -124.901 269.253 C-125.016 264.687 -125.132 260.12 -125.253 255.554 C-125.491 246.536 -125.697 237.52 -125.842 228.5 C-125.935 223.193 -126.113 217.894 -126.331 212.59 C-126.476 208.795 -126.574 204.999 -126.663 201.202 C-126.715 199.4 -126.787 197.599 -126.881 195.799 C-127.55 182.671 -125.07 175.278 -116.261 165.438 C-114.684 163.64 -113.334 161.729 -112.012 159.738 C-111.623 159.168 -111.235 158.598 -110.835 158.011 C-110.267 157.17 -110.267 157.17 -109.688 156.312 C-108.772 154.97 -107.855 153.627 -106.938 152.285 C-106.464 151.593 -105.991 150.901 -105.504 150.188 C-102.757 146.191 -99.971 142.221 -97.188 138.25 C-96.599 137.41 -96.01 136.57 -95.403 135.704 C-94.202 133.991 -93 132.278 -91.798 130.564 C-88.863 126.378 -85.932 122.189 -83 118 C-81.833 116.333 -80.667 114.667 -79.5 113 C-78.923 112.175 -78.345 111.35 -77.75 110.5 C-54.125 76.75 -54.125 76.75 -30.5 43 C-29.922 42.174 -29.344 41.348 -28.748 40.497 C-27.588 38.84 -26.428 37.183 -25.268 35.526 C-22.247 31.213 -19.23 26.898 -16.219 22.578 C-15.285 21.24 -15.285 21.24 -14.332 19.875 C-13.151 18.183 -11.971 16.49 -10.793 14.797 C-2.911 3.51 -2.911 3.51 0 0 Z " fill="#000000" transform="translate(973,141)"/>
<path d="M0 0 C2.682 -0.369 2.682 -0.369 6.163 -0.361 C7.478 -0.365 8.794 -0.369 10.149 -0.373 C11.615 -0.363 13.081 -0.352 14.547 -0.341 C16.085 -0.34 17.622 -0.34 19.159 -0.342 C23.341 -0.343 27.522 -0.325 31.704 -0.304 C36.071 -0.285 40.437 -0.284 44.804 -0.28 C53.078 -0.271 61.351 -0.246 69.624 -0.216 C79.041 -0.183 88.458 -0.166 97.875 -0.151 C117.25 -0.12 136.625 -0.067 156 0 C154.641 2.765 153.199 5.303 151.453 7.844 C150.945 8.585 150.438 9.326 149.914 10.09 C149.365 10.885 148.816 11.68 148.25 12.5 C147.674 13.337 147.099 14.175 146.506 15.037 C140.641 23.553 134.709 32.022 128.766 40.484 C125.84 44.653 122.92 48.827 120 53 C118.833 54.667 117.667 56.333 116.5 58 C115.923 58.825 115.345 59.65 114.75 60.5 C57 143 -0.75 225.5 -128.5 408 C-129.078 408.825 -129.656 409.651 -130.251 410.501 C-131.414 412.163 -132.578 413.825 -133.741 415.487 C-136.71 419.727 -139.677 423.968 -142.641 428.211 C-149.374 437.846 -156.141 447.454 -163 457 C-166.644 455.785 -167.174 454.7 -169.301 451.574 C-170.261 450.177 -170.261 450.177 -171.241 448.751 C-171.924 447.74 -172.608 446.729 -173.312 445.688 C-174.764 443.57 -176.216 441.453 -177.668 439.336 C-178.397 438.268 -179.126 437.201 -179.876 436.101 C-182.926 431.648 -186.023 427.229 -189.125 422.812 C-190.274 421.173 -191.422 419.534 -192.57 417.895 C-193.418 416.685 -193.418 416.685 -194.282 415.452 C-197.19 411.302 -200.095 407.151 -203 403 C-204.167 401.333 -205.333 399.667 -206.5 398 C-208.833 394.667 -211.167 391.333 -213.5 388 C-214.078 387.174 -214.657 386.348 -215.252 385.497 C-216.411 383.841 -217.57 382.185 -218.728 380.529 C-221.76 376.193 -224.8 371.864 -227.852 367.543 C-228.799 366.198 -228.799 366.198 -229.766 364.826 C-230.969 363.119 -232.174 361.413 -233.383 359.709 C-236.517 355.255 -239.384 350.779 -242 346 C-232.596 332.467 -223.175 318.947 -213.718 305.452 C-210.81 301.302 -207.905 297.151 -205 293 C-203.833 291.333 -202.667 289.667 -201.5 288 C-200.634 286.763 -200.634 286.763 -199.75 285.5 C-84.25 120.5 -84.25 120.5 -24.747 35.496 C-23.59 33.843 -22.433 32.19 -21.276 30.537 C-18.211 26.158 -15.145 21.78 -12.078 17.402 C-11.437 16.488 -10.797 15.573 -10.137 14.631 C-8.905 12.873 -7.673 11.115 -6.441 9.357 C-5.888 8.568 -5.335 7.778 -4.766 6.965 C-4.035 5.923 -4.035 5.923 -3.29 4.859 C-2.175 3.252 -1.085 1.628 0 0 Z " fill="#000000" transform="translate(818,86)"/>
<path d="M0 0 C3.246 1.37 4.808 2.719 6.742 5.648 C7.244 6.396 7.745 7.144 8.261 7.914 C8.794 8.726 9.326 9.538 9.875 10.375 C11.039 12.114 12.205 13.852 13.371 15.59 C13.97 16.487 14.57 17.384 15.187 18.308 C18.049 22.557 20.991 26.748 23.938 30.938 C25.113 32.613 26.289 34.289 27.465 35.965 C28.049 36.796 28.632 37.627 29.234 38.484 C32.16 42.653 35.08 46.827 38 51 C39.167 52.667 40.333 54.333 41.5 56 C43.833 59.333 46.167 62.667 48.5 66 C49.078 66.826 49.656 67.652 50.252 68.503 C51.412 70.16 52.572 71.818 53.732 73.476 C56.746 77.782 59.761 82.086 62.781 86.387 C63.404 87.274 64.026 88.162 64.668 89.076 C65.847 90.756 67.026 92.436 68.207 94.115 C71.884 99.359 75.471 104.656 79 110 C73.559 118.802 67.662 127.22 61.667 135.649 C58.801 139.691 55.964 143.752 53.125 147.812 C52.54 148.648 51.956 149.484 51.353 150.345 C50.163 152.047 48.972 153.75 47.782 155.452 C44.856 159.635 41.928 163.818 39 168 C37.833 169.667 36.667 171.333 35.5 173 C28.5 183 28.5 183 26.747 185.504 C25.59 187.157 24.433 188.81 23.276 190.463 C20.211 194.842 17.145 199.22 14.078 203.598 C13.437 204.512 12.797 205.427 12.137 206.369 C10.905 208.127 9.673 209.885 8.441 211.643 C7.888 212.432 7.335 213.222 6.766 214.035 C6.035 215.077 6.035 215.077 5.29 216.141 C4.175 217.748 3.085 219.372 2 221 C-0.682 221.369 -0.682 221.369 -4.163 221.361 C-5.478 221.365 -6.794 221.369 -8.149 221.373 C-9.615 221.363 -11.081 221.352 -12.547 221.341 C-14.085 221.34 -15.622 221.34 -17.159 221.342 C-21.341 221.343 -25.522 221.325 -29.704 221.304 C-34.071 221.285 -38.437 221.284 -42.804 221.28 C-51.078 221.271 -59.351 221.246 -67.624 221.216 C-77.041 221.183 -86.458 221.166 -95.875 221.151 C-115.25 221.12 -134.625 221.067 -154 221 C-152.641 218.235 -151.199 215.697 -149.453 213.156 C-148.945 212.415 -148.438 211.674 -147.914 210.91 C-147.365 210.115 -146.816 209.32 -146.25 208.5 C-145.674 207.663 -145.099 206.825 -144.506 205.963 C-138.641 197.447 -132.709 188.978 -126.766 180.516 C-123.84 176.347 -120.92 172.173 -118 168 C-116.833 166.333 -115.667 164.667 -114.5 163 C-113.923 162.175 -113.345 161.35 -112.75 160.5 C-87.667 124.667 -62.583 88.833 -37.5 53 C-36.922 52.175 -36.345 51.35 -35.75 50.499 C-34.585 48.835 -33.419 47.171 -32.254 45.507 C-29.312 41.303 -26.37 37.099 -23.43 32.895 C-17.694 24.693 -11.951 16.495 -6.188 8.312 C-5.423 7.224 -5.423 7.224 -4.642 6.115 C-1.117 1.117 -1.117 1.117 0 0 Z " fill="#000000" transform="translate(460,598)"/>
</svg>
